<svg width="120" height="79" viewBox="0 0 120 79" fill="none" xmlns="http://www.w3.org/2000/svg">
<path d="M11.6424 57.4367V56.478C13.92 56.478 15.0589 55.4982 15.0589 53.5315V38.778C15.0589 37.9885 14.5387 37.5938 13.4983 37.5938C12.0923 37.5938 10.9535 38.0449 10.0818 38.9542C9.21011 39.8635 8.56338 41.2311 8.13457 43.0638L7.14337 42.81L8.00803 35.9937C8.50011 36.0571 8.95705 36.1135 9.39992 36.1558C9.83576 36.1981 10.2575 36.2192 10.6582 36.2192H22.9462C23.3961 36.2192 23.8531 36.1981 24.317 36.1558C24.788 36.1135 25.2661 36.0571 25.7511 35.9937V42.6831L24.8864 42.81C24.6334 39.3983 22.9392 37.6925 19.8039 37.6925C18.7425 37.6925 18.2152 38.052 18.2152 38.778V53.5315C18.2152 55.4982 19.3611 56.478 21.6598 56.478V57.4367H11.6424Z" fill="white"/>
<path d="M37.1815 57.4367V56.478C37.4767 56.4357 37.7931 56.3934 38.1235 56.3511C38.4539 56.3088 38.7491 56.2524 39.0162 56.189C39.2834 56.1255 39.5083 56.048 39.6841 55.9493C39.8668 55.8506 39.9582 55.7449 39.9582 55.611C39.9371 55.5264 39.9231 55.3995 39.909 55.2444C39.895 55.0823 39.8387 54.8849 39.7333 54.6523L38.2992 50.719C38.0672 50.1621 37.4135 49.8872 36.352 49.8872H31.5999C30.7914 49.8872 30.2994 50.1621 30.1306 50.7119L29.0481 54.025C28.9637 54.2153 28.9215 54.4902 28.9215 54.8567C28.9215 55.8365 29.8565 56.3229 31.7334 56.3229V57.4437H24.542V56.3229C25.1606 56.2806 25.6878 56.0692 26.1237 55.6815C26.5595 55.3008 26.9251 54.7439 27.2274 54.0179L34.8898 35.7399L35.8458 36.1205L43.4098 55.1316C43.7051 55.5828 43.9441 55.8577 44.1128 55.9634C44.155 56.0057 44.3307 56.0621 44.64 56.1396C44.9494 56.2172 45.3782 56.33 45.9335 56.478V57.4367H37.1815ZM34.4047 40.2512L31.5928 46.9689C31.3609 47.4835 31.2413 47.843 31.2413 48.0545C31.2413 48.3717 31.635 48.5338 32.4223 48.5338H36.4434C37.0831 48.5338 37.3994 48.4069 37.3994 48.1531C37.3994 48.0474 37.2799 47.695 37.0479 47.0958L34.4047 40.2512Z" fill="white"/>
<path d="M60.0352 42.6831C59.6064 40.9561 58.8964 39.5745 57.8981 38.5383C56.8999 37.5021 55.6627 36.9875 54.1935 36.9875C52.9844 36.9875 52.0143 37.3047 51.2902 37.9462C50.5661 38.5877 50.2076 39.3983 50.2076 40.3781C50.2076 41.1464 50.4677 41.8161 50.9879 42.38C51.5081 42.9439 52.2884 43.4515 53.3358 43.9026C54.6364 44.4595 55.8173 44.9247 56.8788 45.2913C57.9403 45.6648 58.8542 46.0948 59.6064 46.5883C60.3586 47.0817 60.9491 47.695 61.3638 48.4421C61.7786 49.1893 61.9895 50.2044 61.9895 51.4803C61.9895 52.2698 61.87 53.0451 61.6239 53.8135C61.3779 54.5818 60.9983 55.2726 60.4921 55.8788C59.979 56.485 59.3182 56.9785 58.4957 57.3521C57.6732 57.7257 56.689 57.9089 55.5432 57.9089C54.798 57.9089 54.1513 57.8526 53.61 57.7468C53.0687 57.6411 52.6118 57.5142 52.2392 57.3662C51.8666 57.2181 51.5714 57.0701 51.3605 56.915C51.1496 56.767 50.9949 56.6613 50.9106 56.5978C50.5029 56.8939 50.1022 57.1618 49.6944 57.4014C49.2867 57.634 48.886 57.8032 48.4853 57.916C48.2533 56.2947 48.0776 54.8567 47.9581 53.6091C47.8386 52.3614 47.7823 51.2688 47.7823 50.3313H48.8368C48.8368 51.2688 49.0266 52.1288 49.4132 52.9112C49.7929 53.6936 50.2849 54.3563 50.8825 54.9131C51.48 55.47 52.1478 55.9 52.893 56.2101C53.6381 56.5203 54.3622 56.6754 55.0652 56.6754C55.5151 56.6754 56.0071 56.5978 56.5484 56.4498C57.0897 56.3018 57.6029 56.0692 58.0809 55.7449C58.5589 55.4277 58.9667 55.0189 59.29 54.5325C59.6204 54.0461 59.7821 53.454 59.7821 52.7773C59.7821 51.9244 59.5501 51.1772 59.0932 50.5427C58.6363 49.9013 57.9052 49.4008 56.907 49.0413C55.74 48.6184 54.6153 48.2236 53.5397 47.8571C52.4642 47.4976 51.5151 47.0605 50.6997 46.5601C49.8772 46.0596 49.2234 45.4322 48.7384 44.678C48.2463 43.9237 48.0073 42.9228 48.0073 41.6892C48.0073 40.794 48.169 39.9834 48.4853 39.2573C48.8017 38.5313 49.2375 37.911 49.7788 37.3893C50.3201 36.8677 50.9528 36.4659 51.6768 36.1769C52.4009 35.8879 53.1531 35.7469 53.9404 35.7469C54.8543 35.7469 55.6346 35.909 56.2883 36.2403C56.9351 36.5716 57.5396 36.8677 58.095 37.1215C58.7558 36.5857 59.4447 36.2122 60.1688 36.0007C60.464 36.9805 60.6819 38.0237 60.8085 39.1234C60.935 40.223 60.9983 41.4143 60.9983 42.6902H60.0352V42.6831Z" fill="white"/>
<path d="M67.9226 57.4367V56.478C70.2002 56.478 71.339 55.4982 71.339 53.5315V38.778C71.339 37.9885 70.8188 37.5938 69.7784 37.5938C68.3725 37.5938 67.2337 38.0449 66.362 38.9542C65.4903 39.8635 64.8435 41.2311 64.4147 43.0638L63.4235 42.81L64.2882 35.9937C64.7803 36.0571 65.2372 36.1135 65.6801 36.1558C66.1159 36.1981 66.5377 36.2192 66.9384 36.2192H79.2264C79.6763 36.2192 80.1332 36.1981 80.5972 36.1558C81.0682 36.1135 81.5462 36.0571 82.0313 35.9937V42.6831L81.1666 42.81C80.9135 39.3983 79.2194 37.6925 76.0841 37.6925C75.0226 37.6925 74.4954 38.052 74.4954 38.778V53.5315C74.4954 55.4982 75.6412 56.478 77.94 56.478V57.4367H67.9226Z" fill="white"/>
<path d="M93.4054 57.4367V56.478C93.7007 56.4357 94.017 56.3934 94.3474 56.3511C94.6778 56.3088 94.973 56.2524 95.2402 56.189C95.5073 56.1255 95.7322 56.048 95.908 55.9493C96.0908 55.8506 96.1821 55.7449 96.1821 55.611C96.1611 55.5264 96.147 55.3995 96.1329 55.2444C96.1189 55.0823 96.0626 54.8849 95.9572 54.6523L94.5231 50.719C94.2911 50.1621 93.6374 49.8872 92.5759 49.8872H87.8238C87.0154 49.8872 86.5233 50.1621 86.3546 50.7119L85.272 54.025C85.1876 54.2153 85.1455 54.4902 85.1455 54.8567C85.1455 55.8365 86.0804 56.3229 87.9574 56.3229V57.4437H80.7729V56.3229C81.3916 56.2806 81.9188 56.0692 82.3546 55.6815C82.7905 55.3008 83.156 54.7439 83.4583 54.0179L91.1207 35.7399L92.0768 36.1205L99.6408 55.1316C99.936 55.5828 100.175 55.8577 100.344 55.9634C100.386 56.0057 100.562 56.0621 100.871 56.1396C101.18 56.2172 101.609 56.33 102.164 56.478V57.4367H93.4054ZM90.6287 40.2512L87.8168 46.9689C87.5848 47.4835 87.4653 47.843 87.4653 48.0545C87.4653 48.3717 87.8589 48.5338 88.6463 48.5338H92.6673C93.307 48.5338 93.6233 48.4069 93.6233 48.1531C93.6233 48.0474 93.5038 47.695 93.2718 47.0958L90.6287 40.2512Z" fill="white"/>
<path d="M103.788 57.4367V56.478C105.813 56.478 106.818 55.7379 106.818 54.2646V39.9975C106.818 38.1154 105.764 37.1779 103.662 37.1779V36.2192H112.92V37.1779C110.959 37.1779 109.982 38.1154 109.982 39.9975V54.2646C109.982 55.7379 111.001 56.478 113.047 56.478V57.4367H103.788Z" fill="white"/>
<path d="M118.101 15.3119C116.126 11.1318 111.859 8.425 107.226 8.425H107.135C103.367 8.33336 100.576 9.94053 97.335 11.8085C96.4001 12.3442 95.3456 12.9575 94.1857 13.5708C91.8378 14.8114 89.6234 15.7559 87.2122 16.5525L86.8326 16.6935C86.46 16.8274 86.0804 16.9754 85.6938 17.0812L83.9012 17.6239C83.5146 17.7508 83.1279 17.8424 82.7132 17.9341C82.5163 17.9834 82.3125 18.0257 82.1227 18.0751C81.9047 18.1244 81.6868 18.1808 81.4689 18.2301C81.0823 18.3218 80.6956 18.4134 80.316 18.498C75.339 19.4919 70.3549 19.8162 65.4973 19.4708C63.1424 19.3368 60.7171 19.0196 58.095 18.498C55.3182 17.927 52.9703 17.2574 50.8825 16.4327C50.6997 16.3763 50.4677 16.4467 50.3623 16.6723C50.2568 16.912 50.3552 17.1305 50.5099 17.2292L50.5521 17.2503C52.6469 18.2301 55.016 19.0549 57.7997 19.7668C60.464 20.4435 62.9315 20.9017 65.3497 21.1625C70.3549 21.7194 75.5288 21.5855 80.7308 20.7678C83.1701 20.3307 85.7711 19.8232 88.2807 19.0267C88.815 18.8646 89.3563 18.6742 89.8132 18.5121C91.6409 17.8283 93.4054 17.0389 95.2191 16.0873C95.2542 16.0661 95.2894 16.052 95.3245 16.0309C95.3737 16.0097 95.4159 15.9815 95.4932 15.9392C96.6461 15.326 97.7076 14.7268 98.6918 14.1558C101.63 12.4641 103.753 11.2446 106.439 11.1389V11.1177L106.453 11.1389C106.572 11.1248 107.064 11.1389 107.275 11.1459L107.613 11.16C107.936 11.1741 108.273 11.1953 108.611 11.2516C111.69 11.7169 114.319 13.6624 115.648 16.4679C116.47 18.2019 116.568 20.1545 115.922 21.9661C115.275 23.7777 113.967 25.2227 112.238 26.0475C110.917 26.6748 109.433 26.7524 108.062 26.2589C106.685 25.7655 105.588 24.7646 104.962 23.4464C104.541 22.5582 104.456 21.5643 104.702 20.6338C105.236 22.4243 106.896 23.7284 108.85 23.7284C111.219 23.7284 113.145 21.811 113.173 19.4144C113.187 19.2945 113.18 19.1677 113.159 19.0549C113.068 17.8988 112.618 16.8908 111.887 16.2C111.212 15.5656 110.502 15.2061 109.588 15.0299C108.709 14.8607 108.21 14.9171 107.809 14.9665C107.739 14.9735 107.669 14.9806 107.591 14.9876C106.966 15.044 106.347 15.2202 105.743 15.5022C104.098 16.2846 102.853 17.6662 102.242 19.3791C101.63 21.0991 101.722 22.953 102.502 24.6024C103.437 26.5832 105.089 28.0776 107.149 28.8177C108.041 29.1349 108.969 29.2971 109.904 29.2971C111.113 29.2971 112.294 29.0292 113.405 28.5005C115.795 27.3656 117.595 25.3637 118.481 22.8754C119.366 20.4012 119.233 17.7085 118.101 15.3119Z" fill="white"/>
<path d="M56.5414 24.2218H9.23821L45.104 3.25106C45.3781 3.09598 45.7156 3.09598 45.9827 3.25106L69.5253 17.0177C69.6589 17.0953 69.8135 17.1164 69.9612 17.0741L72.0912 16.482C72.3091 16.4186 72.4708 16.2353 72.4989 16.0097C72.527 15.7842 72.4216 15.5586 72.2247 15.4458L46.3272 0.297529C45.8421 0.0155697 45.2446 0.0155697 44.7595 0.297529L1.47737 25.6034C1.19618 25.7655 1.06262 26.0898 1.14697 26.407C1.23133 26.7242 1.51252 26.9357 1.83589 26.9357H56.5414C56.9632 26.9357 57.3076 26.5903 57.3076 26.1673V24.976C57.3076 24.5602 56.9632 24.2218 56.5414 24.2218Z" fill="white"/>
<path d="M118.544 65.2258H1.27351C1.09074 65.2258 0.943115 65.3738 0.943115 65.5571V77.8294C0.943115 78.0126 1.09074 78.1607 1.27351 78.1607H118.544C118.727 78.1607 118.874 78.0126 118.874 77.8294V65.5571C118.881 65.3738 118.727 65.2258 118.544 65.2258ZM10.6863 73.4519C10.4614 73.896 10.1661 74.2555 9.79357 74.5445C9.42802 74.8265 9.00623 75.038 8.54227 75.1719C8.07831 75.3058 7.60731 75.3763 7.13632 75.3763H4.54937V68.426H7.05196C7.54405 68.426 8.02207 68.4824 8.50009 68.5952C8.97812 68.708 9.3999 68.8983 9.77248 69.1662C10.1451 69.434 10.4473 69.7865 10.6723 70.2306C10.8972 70.6746 11.0167 71.2245 11.0167 71.88C11.0238 72.4862 10.9113 73.0079 10.6863 73.4519ZM20.6826 75.3693H15.8462V68.419H20.5069V69.8288H17.463V71.1469H20.3382V72.4933H17.463V73.9383H20.6826V75.3693ZM28.9426 75.3693H27.2695L24.6474 68.419H26.5244L28.1271 73.3462H28.1693L29.7651 68.419H31.6139L28.9426 75.3693ZM40.7385 75.3693H35.902V68.419H40.5628V69.8288H37.5189V71.1469H40.3941V72.4933H37.5189V73.9383H40.7385V75.3693ZM49.9264 75.3693H45.5609V68.419H47.2481V73.9031H49.9264V75.3693ZM61.0756 73.3744C60.8858 73.8326 60.6257 74.2203 60.2882 74.5445C59.9508 74.8688 59.5501 75.1155 59.0861 75.2988C58.6222 75.475 58.1231 75.5666 57.5818 75.5666C57.0405 75.5666 56.5414 75.475 56.0774 75.2988C55.6205 75.1226 55.2198 74.8688 54.8824 74.5445C54.5449 74.2203 54.2848 73.8326 54.095 73.3744C53.9052 72.9233 53.8138 72.4157 53.8138 71.8659C53.8138 71.309 53.9052 70.8086 54.095 70.3574C54.2848 69.9063 54.5449 69.5257 54.8824 69.2155C55.2198 68.8983 55.6134 68.6586 56.0774 68.4895C56.5343 68.3203 57.0405 68.2357 57.5818 68.2357C58.1231 68.2357 58.6222 68.3203 59.0861 68.4895C59.5501 68.6586 59.9508 68.8983 60.2882 69.2155C60.6257 69.5327 60.8858 69.9133 61.0756 70.3574C61.2654 70.8086 61.3568 71.309 61.3568 71.8659C61.3568 72.4157 61.2654 72.9162 61.0756 73.3744ZM71.2125 71.584C71.0648 71.8589 70.861 72.0844 70.6079 72.2536C70.3548 72.4228 70.0596 72.5497 69.7292 72.6272C69.3988 72.7048 69.0473 72.747 68.6888 72.747H67.8593V75.3693H66.1862V68.419H68.731C69.1106 68.419 69.4621 68.4542 69.7925 68.5317C70.1229 68.6093 70.4111 68.7291 70.6571 68.8983C70.9032 69.0675 71.0929 69.286 71.2335 69.5539C71.3741 69.8288 71.4444 70.1601 71.4444 70.5619C71.4374 70.9637 71.3671 71.3091 71.2125 71.584ZM84.091 75.3693H82.446L82.4882 70.4561H82.4601L80.6604 75.3693H79.4865L77.7361 70.4561H77.7079L77.7501 75.3693H76.1755V68.419H78.5585L80.1332 72.8739H80.1754L81.6868 68.419H84.105V75.3693H84.091ZM94.0662 75.3693H89.2297V68.419H93.8904V69.8288H90.8465V71.1469H93.7217V72.4933H90.8465V73.9383H94.0662V75.3693ZM105.194 75.3693H103.296L100.505 70.8227H100.477L100.519 75.3693H98.8956V68.419H100.801L103.577 72.9515H103.606L103.563 68.419H105.187V75.3693H105.194ZM115.261 69.857H113.307V75.3693H111.633V69.857H109.679V68.426H115.268V69.857H115.261Z" fill="white"/>
<path d="M59.0159 70.3504C58.8401 70.1671 58.6363 70.0191 58.3902 69.9063C58.1442 69.7935 57.8771 69.7442 57.5818 69.7442C57.2866 69.7442 57.0194 69.8006 56.7804 69.9063C56.5414 70.012 56.3305 70.1601 56.1548 70.3504C55.979 70.5337 55.8455 70.7592 55.747 71.02C55.6557 71.2809 55.6064 71.5628 55.6064 71.8659C55.6064 72.1831 55.6557 72.4721 55.7541 72.733C55.8525 73.0008 55.986 73.2264 56.1618 73.4167C56.3375 73.607 56.5414 73.755 56.7804 73.8608C57.0194 73.9665 57.2866 74.0229 57.5818 74.0229C57.8771 74.0229 58.1442 73.9665 58.3832 73.8608C58.6222 73.755 58.8331 73.607 59.0088 73.4167C59.1846 73.2264 59.3252 73.0008 59.4166 72.733C59.515 72.4651 59.5642 72.1761 59.5642 71.8659C59.5642 71.5628 59.515 71.2809 59.4166 71.02C59.3252 70.7592 59.1846 70.5337 59.0159 70.3504Z" fill="white"/>
<path d="M69.4058 69.9204C69.2933 69.864 69.1668 69.8217 69.0262 69.8006C68.8856 69.7794 68.738 69.7724 68.5903 69.7724H67.8593V71.4077H68.5622C68.7169 71.4077 68.8715 71.3936 69.0121 71.3654C69.1527 71.3372 69.2863 71.2949 69.3987 71.2315C69.5112 71.1681 69.6026 71.0764 69.6659 70.9707C69.7291 70.865 69.7643 70.724 69.7643 70.5619C69.7643 70.3997 69.7291 70.2658 69.6659 70.1601C69.6026 70.0614 69.5112 69.9838 69.4058 69.9204Z" fill="white"/>
<path d="M8.58445 70.2799C8.37356 70.1248 8.12752 70.0191 7.86039 69.9486C7.58623 69.8852 7.31207 69.8499 7.02385 69.8499H6.19434V73.9101H6.9887C7.29098 73.9101 7.5792 73.8749 7.85336 73.8044C8.12752 73.7339 8.37356 73.6211 8.58445 73.466C8.79534 73.311 8.96406 73.0995 9.09059 72.8387C9.21713 72.5779 9.2804 72.2536 9.2804 71.8659C9.2804 71.4712 9.21713 71.1469 9.09059 70.8861C8.96406 70.6394 8.79534 70.435 8.58445 70.2799Z" fill="white"/>
</svg>
